<svg version="1.1" id="Layer_1" xmlns="http://www.w3.org/2000/svg" xmlns:xlink="http://www.w3.org/1999/xlink" x="0px" y="0px" width="100%" viewBox="0 0 842 843" enable-background="new 0 0 842 843" xml:space="preserve">

<path fill="#828385" opacity="1.000000" stroke="none" d="
M502.000000,1.000000 
	C615.613281,1.000000 729.226501,1.000000 843.000000,1.000000 
	C843.000000,190.690720 843.000000,380.381500 842.646362,570.474487 
	C839.254700,569.585571 836.216675,568.294373 833.107239,566.538696 
	C832.997070,563.242371 832.924438,560.410522 832.924377,557.578674 
	C832.920288,382.440857 832.792603,207.302780 833.136292,32.165634 
	C833.168396,15.802171 821.519836,4.768880 805.933777,4.837749 
	C707.285278,5.273641 608.633911,5.065457 509.983521,5.059359 
	C507.320038,5.059195 504.656555,4.940992 501.994385,4.490127 
	C501.997131,3.068280 501.998566,2.034140 502.000000,1.000000 
z" data-index="1" style="opacity: 1; visibility: hidden;"></path>

<path fill="#7F7F82" opacity="1.000000" stroke="none" d="
M807.468628,844.000000 
	C805.937744,842.290405 804.887329,840.573364 803.810059,838.873230 
	C802.566467,836.910583 801.299133,834.962952 800.479492,832.595337 
	C802.247681,832.155090 803.594238,831.981934 804.906860,832.123596 
	C821.892151,833.955872 833.286804,821.546509 833.159729,804.128479 
	C832.602173,727.748535 832.922485,651.362183 832.939087,574.978149 
	C832.939636,572.319824 833.095276,569.661560 833.178711,567.003235 
	C836.216675,568.294373 839.254700,569.585571 842.646362,570.938354 
	C843.000000,662.000000 843.000000,753.000000 843.000000,844.000000 
	C831.237549,844.000000 819.587463,844.000000 807.468628,844.000000 
z" data-index="3" style="opacity: 1; visibility: hidden;"></path>

<path fill="#627CF8" opacity="1.000000" stroke="none" d="
M71.536743,4.940921 
	C73.665596,4.943157 75.328262,5.050194 76.990929,5.050252 
	C217.016205,5.055149 357.041504,5.051941 497.066772,5.046140 
	C498.398376,5.046085 499.730011,5.003632 501.527344,4.929403 
	C504.656555,4.940992 507.320038,5.059195 509.983521,5.059359 
	C608.633911,5.065457 707.285278,5.273641 805.933777,4.837749 
	C821.519836,4.768880 833.168396,15.802171 833.136292,32.165634 
	C832.792603,207.302780 832.920288,382.440857 832.924377,557.578674 
	C832.924438,560.410522 832.997070,563.242371 833.107239,566.538696 
	C833.095276,569.661560 832.939636,572.319824 832.939087,574.978149 
	C832.922485,651.362183 832.602173,727.748535 833.159729,804.128479 
	C833.286804,821.546509 821.892151,833.955872 804.906860,832.123596 
	C803.594238,831.981934 802.247681,832.155090 800.453003,832.240479 
	C798.159302,832.237854 796.329407,832.123047 794.499512,832.122925 
	C625.583069,832.111145 456.666565,832.107910 287.750092,832.107971 
	C286.084747,832.107971 284.419403,832.159302 282.345154,832.236877 
	C268.776978,832.221252 255.617767,832.102478 242.458511,832.098511 
	C174.820602,832.078064 107.177979,831.642578 39.547737,832.361938 
	C19.737911,832.572632 9.407991,821.730896 9.435553,802.413757 
	C9.792331,552.353943 9.667759,302.293457 9.665743,52.233105 
	C9.665682,44.736317 9.577014,37.237839 9.704062,29.743101 
	C9.958194,14.751740 19.709267,5.129035 34.587471,5.074453 
	C46.748428,5.029840 58.909519,5.020670 71.536743,4.940921 
M535.066772,13.134779 
	C533.735596,13.106413 532.404358,13.053268 531.073181,13.053205 
	C417.374237,13.047768 303.675293,13.045528 189.976334,13.053659 
	C188.315002,13.053779 186.653671,13.186760 184.062622,13.140456 
	C178.730972,13.111853 173.399307,13.059226 168.067657,13.058433 
	C123.910934,13.051862 79.754105,13.100102 35.597603,13.000993 
	C29.703459,12.987763 24.861473,14.604174 21.049936,19.223967 
	C17.548479,23.467930 17.753664,28.458786 17.753683,33.474575 
	C17.754683,290.083466 17.745382,546.692383 17.740286,803.301270 
	C17.740246,805.300537 17.732212,807.301880 17.815435,809.298584 
	C18.059727,815.159668 20.929352,819.757141 26.050190,822.064392 
	C29.519129,823.627441 33.748833,824.050659 37.638687,824.052307 
	C237.260391,824.136658 436.882111,824.121460 636.503845,824.107605 
	C638.667114,824.107422 640.830444,823.985229 643.925781,824.040039 
	C685.407104,824.066101 726.888428,824.095276 768.369751,824.116516 
	C781.697266,824.123352 795.025269,824.182495 808.352051,824.081604 
	C818.274048,824.006531 824.464722,817.830505 824.876831,807.869507 
	C824.924988,806.704834 824.926575,805.537659 824.926575,804.371643 
	C824.927002,725.739441 824.926941,647.107178 824.910400,568.474976 
	C824.910034,566.648315 824.721741,564.821655 824.782349,562.070923 
	C824.833435,559.906921 824.929199,557.742859 824.929260,555.578857 
	C824.933594,381.664062 824.836914,207.749161 825.106018,33.834793 
	C825.127502,19.954878 818.000244,12.810865 804.355469,12.867189 
	C717.233032,13.226812 630.108276,13.042432 542.984314,13.048756 
	C540.655396,13.048924 538.326416,13.181451 535.066772,13.134779 
z" data-index="5" style="opacity: 1; visibility: hidden;"></path>

<path fill="#838383" opacity="1.000000" stroke="none" d="
M535.997498,13.252254 
	C538.326416,13.181451 540.655396,13.048924 542.984314,13.048756 
	C630.108276,13.042432 717.233032,13.226812 804.355469,12.867189 
	C818.000244,12.810865 825.127502,19.954878 825.106018,33.834793 
	C824.836914,207.749161 824.933594,381.664062 824.929260,555.578857 
	C824.929199,557.742859 824.833435,559.906921 824.376465,562.472839 
	C819.430298,558.409302 814.667236,554.145264 810.403015,549.430176 
	C804.315857,542.699219 798.804749,535.438782 792.576538,528.849670 
	C790.901062,527.077026 787.519836,526.916626 784.720032,525.687134 
	C776.229553,479.094238 757.557495,438.421021 723.350830,405.008087 
	C683.426697,366.010223 644.635803,325.852356 605.347046,286.203918 
	C572.157898,252.710754 538.947937,219.238083 505.776428,185.727432 
	C499.636353,179.524597 500.902771,170.595703 508.703583,167.134903 
	C555.408081,146.414505 600.199829,149.533829 641.094116,180.796341 
	C672.635193,204.908554 687.643127,238.317581 688.751770,277.907990 
	C688.937744,284.548157 690.548035,290.489777 695.243469,295.220642 
	C715.432312,315.562042 735.630066,335.896027 756.002991,356.052460 
	C762.635620,362.614594 772.141479,360.154358 775.152588,351.394806 
	C781.688293,332.381927 785.957703,312.836792 786.816711,292.756744 
	C790.045776,217.269318 763.530945,154.384872 705.469421,105.692322 
	C669.852722,75.822922 628.305908,59.360420 581.907776,55.997528 
	C568.340027,55.014149 554.638000,55.885208 541.130371,55.581474 
	C544.098694,51.318150 545.506226,47.356724 541.589539,43.213280 
	C541.169250,42.768681 540.628723,41.784565 540.814819,41.516666 
	C544.314697,36.477341 539.370667,35.696117 536.882202,33.965923 
	C537.379395,31.984909 538.292542,30.251453 538.135132,28.621407 
	C537.638245,23.477522 536.740295,18.372385 535.997498,13.252254 
z" data-index="7" style="opacity: 1; visibility: hidden;"></path>

<path fill="#808080" opacity="1.000000" stroke="none" d="
M535.532104,13.193517 
	C536.740295,18.372385 537.638245,23.477522 538.135132,28.621407 
	C538.292542,30.251453 537.379395,31.984909 536.882202,33.965923 
	C539.370667,35.696117 544.314697,36.477341 540.814819,41.516666 
	C540.628723,41.784565 541.169250,42.768681 541.589539,43.213280 
	C545.506226,47.356724 544.098694,51.318150 540.719116,55.696526 
	C538.693970,56.363983 537.217651,56.628979 535.731323,56.813686 
	C498.483490,61.442398 464.164062,74.150826 434.116638,96.565346 
	C419.935120,107.144356 407.649231,120.302147 394.745941,132.546021 
	C383.042572,143.651352 371.667023,155.102127 360.004211,166.056213 
	C358.351379,163.093048 357.640106,160.565628 360.111633,158.004730 
	C362.281525,155.756317 361.355316,154.231796 358.740448,153.190872 
	C357.736694,152.791306 356.841522,152.119095 355.947662,151.600616 
	C357.614349,147.238663 357.614349,147.238663 352.829407,143.198746 
	C352.641144,140.499130 351.835083,138.029617 351.103149,135.538345 
	C350.687378,134.123154 350.069275,132.664932 350.101929,131.238907 
	C350.219147,126.121307 350.523102,121.034897 343.815704,119.931252 
	C345.794189,114.956299 343.985718,110.357056 339.421265,106.760651 
	C346.239410,99.744736 353.026123,93.120178 359.580536,86.273216 
	C365.971161,79.597336 363.726685,69.957069 355.057465,67.056686 
	C320.068481,55.350746 284.219086,51.531349 247.835785,57.894978 
	C231.392639,60.770969 215.405975,66.256821 199.212204,70.558617 
	C200.018921,65.897713 199.181366,61.730164 197.363586,57.186989 
	C194.418365,49.826050 191.583908,41.971760 191.140762,34.186981 
	C190.711075,26.638800 185.198257,21.239098 185.003174,13.635763 
	C186.653671,13.186760 188.315002,13.053779 189.976334,13.053659 
	C303.675293,13.045528 417.374237,13.047768 531.073181,13.053205 
	C532.404358,13.053268 533.735596,13.106413 535.532104,13.193517 
z" data-index="9" style="opacity: 1; visibility: hidden;"></path>
<path fill="#FBFBFB" opacity="1.000000" stroke="none" d="
M198.914062,70.737686 
	C215.405975,66.256821 231.392639,60.770969 247.835785,57.894978 
	C284.219086,51.531349 320.068481,55.350746 355.057465,67.056686 
	C363.726685,69.957069 365.971161,79.597336 359.580536,86.273216 
	C353.026123,93.120178 346.239410,99.744736 339.113586,106.914848 
	C327.203064,118.753197 315.332916,129.774780 304.397064,141.656326 
	C296.416565,150.326965 287.145020,153.387024 275.680145,154.140778 
	C264.339325,154.886398 252.700928,156.699768 241.978455,160.351105 
	C170.622116,184.650208 137.880432,263.961395 170.103867,332.400360 
	C174.348404,341.415283 182.670105,343.017395 189.448303,336.284485 
	C231.894150,294.122070 274.355713,251.975433 316.771454,209.782761 
	C326.091034,200.512192 335.214874,191.045135 344.490387,181.729858 
	C349.643524,176.554688 354.923889,171.506180 360.146942,166.400589 
	C371.667023,155.102127 383.042572,143.651352 394.745941,132.546021 
	C407.649231,120.302147 419.935120,107.144356 434.116638,96.565346 
	C464.164062,74.150826 498.483490,61.442398 535.731323,56.813686 
	C537.217651,56.628979 538.693970,56.363983 540.586243,56.021343 
	C554.638000,55.885208 568.340027,55.014149 581.907776,55.997528 
	C628.305908,59.360420 669.852722,75.822922 705.469421,105.692322 
	C763.530945,154.384872 790.045776,217.269318 786.816711,292.756744 
	C785.957703,312.836792 781.688293,332.381927 775.152588,351.394806 
	C772.141479,360.154358 762.635620,362.614594 756.002991,356.052460 
	C735.630066,335.896027 715.432312,315.562042 695.243469,295.220642 
	C690.548035,290.489777 688.937744,284.548157 688.751770,277.907990 
	C687.643127,238.317581 672.635193,204.908554 641.094116,180.796341 
	C600.199829,149.533829 555.408081,146.414505 508.703583,167.134903 
	C500.902771,170.595703 499.636353,179.524597 505.776428,185.727432 
	C538.947937,219.238083 572.157898,252.710754 605.347046,286.203918 
	C644.635803,325.852356 683.426697,366.010223 723.350830,405.008087 
	C757.557495,438.421021 776.229553,479.094238 784.720093,525.687134 
	C785.020447,527.416443 785.119202,528.816711 785.309692,530.910339 
	C785.598145,532.403564 785.794861,533.203552 785.991577,534.003479 
	C786.031067,535.400574 786.070557,536.797668 786.169434,538.957397 
	C786.462402,541.156860 786.695923,542.593567 786.929443,544.030334 
	C786.991333,547.387878 787.053223,550.745483 787.134644,554.993896 
	C787.226746,558.927979 787.299316,561.971252 787.371826,565.014526 
	C787.176147,568.701416 786.980469,572.388245 786.697266,576.829773 
	C786.547546,578.725281 786.485352,579.866150 786.423157,581.007019 
	C786.226501,582.720276 786.029846,584.433533 785.745544,586.838257 
	C785.621033,588.355347 785.584290,589.180908 785.547607,590.006531 
	C785.327209,591.066772 785.106873,592.127014 784.770752,593.805115 
	C784.630615,594.951172 784.606323,595.479431 784.582031,596.007629 
	C784.302734,597.372314 784.023376,598.736938 783.613525,600.734131 
	C783.448303,601.913635 783.413635,602.460510 783.378906,603.007385 
	C778.124695,619.275818 774.439941,636.266235 767.346008,651.688416 
	C735.756653,720.363831 682.366272,762.557922 608.610596,779.019104 
	C607.638794,779.236023 606.677612,779.500366 605.354858,779.903870 
	C592.116943,781.306763 579.259644,783.142151 566.349304,783.664185 
	C540.839355,784.695679 516.075439,780.093750 491.872314,772.162170 
	C487.429169,770.706116 484.272369,768.196045 482.779388,762.916504 
	C482.641083,760.784729 482.622559,759.388184 482.604004,757.991699 
	C483.993988,755.905884 485.383972,753.820068 487.221069,751.294800 
	C505.941071,732.599487 524.409180,714.533020 542.391052,695.994812 
	C549.608215,688.554382 557.588501,685.114380 568.000793,684.913391 
	C598.208984,684.330322 624.741943,673.291809 647.003662,653.220886 
	C688.348328,615.944885 699.628906,557.249084 675.966797,506.831879 
	C671.257263,496.797211 663.353027,495.401672 655.406860,503.282715 
	C601.688782,556.560242 547.968201,609.835205 494.294189,663.157043 
	C482.718872,674.656433 471.330139,686.343628 459.855469,697.944336 
	C451.357025,706.154846 442.549561,714.072021 434.421112,722.633789 
	C414.119202,744.018188 389.499329,758.724426 362.190796,768.818848 
	C295.702301,793.395691 230.839981,788.528687 169.680969,753.109009 
	C108.378487,717.606079 72.316101,663.492310 61.107281,593.390747 
	C55.430683,557.888611 58.753033,522.951294 70.152451,488.815155 
	C73.803581,477.881653 82.921448,475.686157 91.153816,483.902771 
	C110.498779,503.210815 129.755737,522.606995 149.114899,541.900757 
	C154.490051,547.257751 156.877502,553.542175 157.140411,561.145996 
	C158.853058,610.675903 181.242371,648.116089 225.171249,670.916016 
	C261.547302,689.795898 299.242004,689.118408 336.454865,671.902832 
	C345.130035,667.889465 346.154266,659.119507 339.435120,652.370300 
	C298.870789,611.624512 258.350525,570.834778 217.855331,530.020264 
	C184.989243,496.895111 152.307007,463.586517 119.302032,430.600586 
	C94.537804,405.850708 77.665672,376.402618 68.245384,343.031738 
	C47.725685,270.341766 59.737183,203.069504 104.800873,142.261993 
	C124.863762,115.189751 150.648346,94.539055 180.661942,79.238617 
	C186.534561,76.244858 192.625626,73.679634 198.914062,70.737686 
M474.533661,286.952179 
	C462.040192,262.246155 460.060516,236.701538 468.416077,210.330078 
	C468.717621,209.378326 469.355316,208.318344 469.155884,207.468506 
	C468.771790,205.832001 468.300537,203.630417 467.117126,202.933151 
	C465.953674,202.247635 463.623718,202.697357 462.238892,203.448120 
	C460.546448,204.365631 459.286591,206.096802 457.871613,207.508133 
	C409.981354,255.274902 362.190308,303.141724 314.161011,350.768250 
	C294.928101,369.839905 271.412994,379.518250 244.302536,378.938019 
	C234.438843,378.726929 224.641800,376.036407 214.775223,374.785828 
	C212.814880,374.537354 209.613525,375.102295 208.904541,376.367798 
	C208.124191,377.760742 209.414703,380.443909 210.098099,382.465210 
	C210.386398,383.317963 211.423874,383.921173 212.130310,384.628326 
	C252.047913,424.583069 291.998230,464.505188 331.863586,504.512024 
	C342.323792,515.009399 353.464600,525.018250 362.646881,536.560852 
	C383.265198,562.479126 388.804657,592.088623 380.751068,624.213501 
	C380.048096,627.017517 378.937042,630.336975 382.374878,631.549255 
	C384.076385,632.149292 387.256073,630.963135 388.707001,629.519714 
	C436.068146,582.401123 483.148712,534.999817 530.608643,487.981384 
	C558.635010,460.215790 592.124146,452.529388 629.958191,463.033203 
	C632.568298,463.757874 635.185913,464.967957 637.081604,461.935059 
	C639.118958,458.675659 637.320007,456.399872 635.030090,454.108551 
	C591.103333,410.154144 547.198242,366.178040 503.317871,322.177368 
	C492.738251,311.568695 481.662048,301.350006 474.533661,286.952179 
z" data-index="10" style="opacity: 1;"></path>

<path fill="#808080" opacity="1.000000" stroke="none" d="
M482.378174,758.185852 
	C482.622559,759.388184 482.641083,760.784729 482.595215,762.596069 
	C482.404663,761.467224 482.278503,759.923645 482.378174,758.185852 
z" data-index="12"></path>
<path fill="#838383" opacity="1.000000" stroke="none" d="
M787.694214,564.888000 
	C787.299316,561.971252 787.226746,558.927979 787.251526,555.437988 
	C791.082581,558.007996 791.007507,561.285095 787.694214,564.888000 
z" data-index="13"></path>
<path fill="#838383" opacity="1.000000" stroke="none" d="
M787.090942,543.749268 
	C786.695923,542.593567 786.462402,541.156860 786.306458,539.356689 
	C786.673523,540.484924 786.963013,541.976501 787.090942,543.749268 
z" data-index="14"></path>
<path fill="#838383" opacity="1.000000" stroke="none" d="
M786.638794,580.821533 
	C786.485352,579.866150 786.547546,578.725281 786.782410,577.283325 
	C786.921509,578.200134 786.888000,579.418030 786.638794,580.821533 
z" data-index="15"></path>
<path fill="#838383" opacity="1.000000" stroke="none" d="
M786.117615,533.787415 
	C785.794861,533.203552 785.598145,532.403564 785.480957,531.298401 
	C785.788208,531.852539 786.015930,532.711914 786.117615,533.787415 
z" data-index="16"></path>
<path fill="#838383" opacity="1.000000" stroke="none" d="
M785.733521,589.844604 
	C785.584290,589.180908 785.621033,588.355347 785.826721,587.264038 
	C785.970276,587.893127 785.944885,588.787903 785.733521,589.844604 
z" data-index="17"></path>
<path fill="#838383" opacity="1.000000" stroke="none" d="
M784.732849,595.882935 
	C784.606323,595.479431 784.630615,594.951172 784.826172,594.211060 
	C784.959534,594.585510 784.921631,595.171936 784.732849,595.882935 
z" data-index="18"></path>
<path fill="#838383" opacity="1.000000" stroke="none" d="
M783.546631,602.885742 
	C783.413635,602.460510 783.448303,601.913635 783.663940,601.152466 
	C783.801331,601.546814 783.757874,602.155457 783.546631,602.885742 
z" data-index="19"></path>

<path fill="#808080" opacity="1.000000" stroke="none" d="
M474.706543,287.280762 
	C481.662048,301.350006 492.738251,311.568695 503.317871,322.177368 
	C547.198242,366.178040 591.103333,410.154144 635.030090,454.108551 
	C637.320007,456.399872 639.118958,458.675659 637.081604,461.935059 
	C635.185913,464.967957 632.568298,463.757874 629.958191,463.033203 
	C592.124146,452.529388 558.635010,460.215790 530.608643,487.981384 
	C483.148712,534.999817 436.068146,582.401123 388.707001,629.519714 
	C387.256073,630.963135 384.076385,632.149292 382.374878,631.549255 
	C378.937042,630.336975 380.048096,627.017517 380.751068,624.213501 
	C388.804657,592.088623 383.265198,562.479126 362.646881,536.560852 
	C353.464600,525.018250 342.323792,515.009399 331.863586,504.512024 
	C291.998230,464.505188 252.047913,424.583069 212.130310,384.628326 
	C211.423874,383.921173 210.386398,383.317963 210.098099,382.465210 
	C209.414703,380.443909 208.124191,377.760742 208.904541,376.367798 
	C209.613525,375.102295 212.814880,374.537354 214.775223,374.785828 
	C224.641800,376.036407 234.438843,378.726929 244.302536,378.938019 
	C271.412994,379.518250 294.928101,369.839905 314.161011,350.768250 
	C362.190308,303.141724 409.981354,255.274902 457.871613,207.508133 
	C459.286591,206.096802 460.546448,204.365631 462.238892,203.448120 
	C463.623718,202.697357 465.953674,202.247635 467.117126,202.933151 
	C468.300537,203.630417 468.771790,205.832001 469.155884,207.468506 
	C469.355316,208.318344 468.717621,209.378326 468.416077,210.330078 
	C460.060516,236.701538 462.040192,262.246155 474.706543,287.280762 
z" data-index="21" style="opacity: 1; visibility: hidden;"></path>
</svg>